<svg width="190" height="213" viewBox="0 0 190 213" fill="none" xmlns="http://www.w3.org/2000/svg">
<circle cx="96" cy="190" r="23" fill="#8C8B8B"/>
<ellipse cx="96" cy="105.5" rx="51" ry="50.5" fill="#F9D80D"/>
<path d="M105.649 152.153C99.4087 168.807 102.823 185.686 113 189.5C123.177 193.314 115.126 174.696 121.366 158.043C127.607 141.39 145.552 132.719 135.375 128.905C125.199 125.092 111.89 135.5 105.649 152.153Z" fill="#F9D80D"/>
<path d="M85.8744 152.153C92.1149 168.807 88.7006 185.686 78.5237 189.5C68.3468 193.314 76.3979 174.696 70.1574 158.043C63.9169 141.39 45.9713 132.719 56.1482 128.905C66.3251 125.092 79.634 135.5 85.8744 152.153Z" fill="#F9D80D"/>
<rect x="73" y="150" width="46" height="40" fill="#F9D80D"/>
<ellipse cx="96" cy="105.5" rx="51" ry="50.5" fill="url(#paint0_radial)"/>
<path d="M26.9016 50.9683C28.4407 51.0088 29.3589 52.7001 28.5543 54.0128L19.9558 68.0419C19.1513 69.3545 17.2274 69.304 16.4929 67.9509L8.64261 53.4898C7.90808 52.1367 8.91376 50.4959 10.4528 50.5363L26.9016 50.9683Z" fill="#D3DE16"/>
<path d="M162.904 50.7736C161.365 50.814 160.446 52.5054 161.251 53.818L169.849 67.8471C170.654 69.1598 172.578 69.1092 173.312 67.7562L181.163 53.2951C181.897 51.942 180.892 50.3012 179.352 50.3416L162.904 50.7736Z" fill="#97DDDD"/>
<path d="M87.3889 25.3867C85.8495 25.4099 84.8623 23.7579 85.6119 22.4131L93.6237 8.04088C94.3734 6.69612 96.2977 6.66715 97.0875 7.98875L105.528 22.1133C106.318 23.4349 105.381 25.1159 103.842 25.139L87.3889 25.3867Z" fill="#F9AB12"/>
<path d="M16.7679 131C17.5378 129.667 19.4623 129.667 20.2321 131L28.4593 145.25C29.2291 146.583 28.2668 148.25 26.7272 148.25H10.2728C8.73316 148.25 7.77091 146.583 8.54071 145.25L16.7679 131Z" fill="#C286FF"/>
<path d="M169.768 131C170.538 129.667 172.462 129.667 173.232 131L181.459 145.25C182.229 146.583 181.267 148.25 179.727 148.25H163.273C161.733 148.25 160.771 146.583 161.541 145.25L169.768 131Z" fill="#FF6F62"/>
<defs>
<radialGradient id="paint0_radial" cx="0" cy="0" r="1" gradientUnits="userSpaceOnUse" gradientTransform="translate(96 105.5) rotate(90) scale(50.5 51)">
<stop stop-color="white" stop-opacity="0.63"/>
<stop offset="1" stop-color="white" stop-opacity="0"/>
</radialGradient>
</defs>
</svg>
